<?xml version="1.0" encoding="UTF-8" standalone="no"?>
<!-- Uploaded to: SVG Repo, www.svgrepo.com, Generator: SVG Repo Mixer Tools -->

<svg
   version="1.0"
   id="Layer_1"
   width="800px"
   height="800px"
   viewBox="0 0 64 64"
   enable-background="new 0 0 64 64"
   xml:space="preserve"
   sodipodi:docname="beer_can.svg"
   inkscape:version="1.1 (c68e22c387, 2021-05-23)"
   xmlns:inkscape="http://www.inkscape.org/namespaces/inkscape"
   xmlns:sodipodi="http://sodipodi.sourceforge.net/DTD/sodipodi-0.dtd"
   xmlns="http://www.w3.org/2000/svg"
   xmlns:svg="http://www.w3.org/2000/svg"><defs
   id="defs11" /><sodipodi:namedview
   id="namedview9"
   pagecolor="#ffffff"
   bordercolor="#666666"
   borderopacity="1.0"
   inkscape:pageshadow="2"
   inkscape:pageopacity="0.0"
   inkscape:pagecheckerboard="0"
   showgrid="false"
   inkscape:zoom="0.33057242"
   inkscape:cx="667.02479"
   inkscape:cy="428.04539"
   inkscape:window-width="1920"
   inkscape:window-height="1017"
   inkscape:window-x="-8"
   inkscape:window-y="-8"
   inkscape:window-maximized="1"
   inkscape:current-layer="Layer_1" />
<g
   id="g6"
   transform="matrix(-1,0,0,1,64,0)">
	<path
   fill="#231f20"
   d="M 16,54.003 H 60 V 14.922 C 62.389,13.537 64,10.959 64,8 64,3.582 60.418,0 56,0 53.614,0 51.479,1.051 50.013,2.707 48.939,1.077 47.097,0 45,0 43.07,0 41.358,0.914 40.261,2.33 39.544,2.118 38.786,2 38,2 36.382,2 34.879,2.484 33.62,3.311 32.175,1.883 30.191,1 28,1 25.887,1 23.971,1.826 22.541,3.164 21.548,2.436 20.326,2 19,2 c -3.313,0 -6,2.687 -6,6 0,1.539 0.584,2.938 1.537,4 H 4 c -2.211,0 -4,1.789 -4,4 v 30 c 0,2.211 1.789,4 4,4 H 16 Z M 29,47 c 0,0.553 -0.447,1 -1,1 -0.553,0 -1,-0.447 -1,-1 V 21 c 0,-0.553 0.447,-1 1,-1 0.553,0 1,0.447 1,1 z m 10,0 c 0,0.553 -0.447,1 -1,1 -0.553,0 -1,-0.447 -1,-1 V 21 c 0,-0.553 0.447,-1 1,-1 0.553,0 1,0.447 1,1 z m 10,0 c 0,0.553 -0.447,1 -1,1 -0.553,0 -1,-0.447 -1,-1 V 21 c 0,-0.553 0.447,-1 1,-1 0.553,0 1,0.447 1,1 z M 19,4 c 0.839,0 1.616,0.261 2.26,0.703 0.594,0.407 1.065,0.975 1.369,1.637 C 22.956,5.678 23.4,5.09 23.937,4.594 25.006,3.607 26.431,3 28,3 c 1.583,0 3.02,0.617 4.092,1.62 0.498,0.466 0.917,1.013 1.233,1.623 C 33.754,5.711 34.273,5.256 34.857,4.895 35.772,4.331 36.846,4 38,4 c 0.445,0 0.878,0.053 1.296,0.145 0.675,0.148 1.305,0.412 1.873,0.768 0.188,-0.66 0.524,-1.259 0.996,-1.732 C 42.89,2.451 43.892,2 45,2 c 1.729,0 3.188,1.104 3.747,2.641 0.08,0.221 0.145,0.449 0.185,0.684 0.503,0.171 0.978,0.402 1.41,0.693 0.143,-0.406 0.326,-0.79 0.548,-1.15 C 51.945,3.149 53.836,2 56,2 c 3.313,0 6,2.686 6,6 0,3.312 -2.687,6 -6,6 -1.237,0 -2.387,-0.375 -3.343,-1.018 -0.671,-0.451 -1.242,-1.036 -1.685,-1.714 -0.055,0.819 -0.352,1.563 -0.825,2.173 C 49.416,14.383 48.285,15 47,15 46.161,15 45.384,14.739 44.74,14.297 44.146,13.89 43.675,13.322 43.371,12.662 43.043,13.321 42.599,13.911 42.062,14.405 40.993,15.393 39.569,16 38,16 36.417,16 34.98,15.382 33.908,14.381 33.41,13.914 32.991,13.367 32.675,12.756 32.246,13.289 31.727,13.743 31.143,14.104 30.228,14.668 29.153,15 28,15 25.952,15 24.146,13.972 23.063,12.405 22.651,11.809 22.348,11.134 22.173,10.41 21.736,10.982 21.158,11.437 20.48,11.709 20.021,11.893 19.524,12 19,12 16.791,12 15,10.209 15,8 15,5.791 16.791,4 19,4 Z M 8,42 V 20 h 8 v 22 z"
   id="path2" />
	<path
   fill="#231f20"
   d="m 16,56.003 v 4 c 0,2.211 1.789,4 4,4 h 36 c 2.211,0 4,-1.789 4,-4 v -4 z"
   id="path4" />
</g>
</svg>
