<?xml version="1.0" standalone="no"?>
<!DOCTYPE svg PUBLIC "-//W3C//DTD SVG 20010904//EN"
 "http://www.w3.org/TR/2001/REC-SVG-20010904/DTD/svg10.dtd">
<svg version="1.0" xmlns="http://www.w3.org/2000/svg"
 width="800.000000pt" height="800.000000pt" viewBox="0 0 800.000000 800.000000"
 preserveAspectRatio="xMidYMid meet">

<g transform="translate(0.000000,800.000000) scale(0.100000,-0.100000)"
fill="#000000" stroke="none">
<path d="M5585 7506 c-160 -43 -214 -97 -354 -352 l-72 -131 -222 -108 c-842
-410 -964 -478 -1144 -628 -338 -284 -582 -708 -668 -1160 -81 -423 -173 -684
-339 -956 -136 -222 -243 -347 -602 -696 -295 -287 -466 -467 -552 -580 -72
-96 -147 -250 -179 -370 -25 -92 -27 -115 -27 -290 0 -176 2 -197 28 -290 29
-108 91 -246 151 -340 77 -121 216 -245 435 -387 169 -111 926 -564 1061 -636
222 -118 371 -162 552 -162 438 0 827 259 987 657 57 143 98 295 215 807 133
581 191 753 340 1011 132 229 237 357 495 605 283 272 388 409 514 671 110
228 172 453 197 719 14 154 10 237 -45 920 l-44 535 88 160 c117 215 139 287
120 400 -15 90 -61 174 -129 237 -63 58 -489 318 -574 350 -66 25 -168 31
-232 14z m-13 -1103 c134 -81 244 -147 245 -147 2 -2 83 -1019 83 -1051 l0
-31 -207 -69 c-197 -65 -214 -69 -318 -73 -179 -6 -295 32 -455 152 -96 72
-270 159 -382 191 -255 72 -531 54 -769 -49 -93 -40 -92 -44 -28 91 67 140
172 287 294 408 133 133 242 208 460 315 88 43 311 153 495 244 184 91 336
165 337 165 1 1 111 -65 245 -146z"/>
</g>
</svg>
