<?xml version="1.0" standalone="no"?>
<!DOCTYPE svg PUBLIC "-//W3C//DTD SVG 20010904//EN"
 "http://www.w3.org/TR/2001/REC-SVG-20010904/DTD/svg10.dtd">
<svg version="1.0" xmlns="http://www.w3.org/2000/svg"
 width="1000.000000pt" height="1000.000000pt" viewBox="0 0 1000.000000 1000.000000"
 preserveAspectRatio="xMidYMid meet">

<g transform="translate(0.000000,1000.000000) scale(0.100000,-0.100000)"
fill="#000000" stroke="none">
<path d="M6130 7788 c-147 -21 -277 -85 -369 -183 -49 -53 -121 -166 -121
-192 0 -5 56 -16 125 -26 246 -33 494 -133 750 -302 369 -243 582 -549 535
-770 -9 -44 -21 -68 -45 -92 -29 -29 -39 -33 -87 -33 -142 0 -346 115 -768
434 -80 61 -228 173 -329 249 -200 152 -365 263 -451 307 -74 37 -269 104
-388 134 -231 58 -447 66 -615 22 -251 -65 -444 -230 -575 -491 -22 -44 -43
-90 -46 -102 l-7 -22 58 21 c73 26 264 36 356 19 313 -60 663 -265 962 -566
253 -253 413 -527 390 -664 -22 -131 -166 -178 -353 -115 -194 64 -377 187
-892 599 -545 437 -702 532 -915 561 -497 67 -874 -88 -1113 -456 -58 -89
-158 -288 -149 -296 3 -3 31 -1 63 5 195 36 425 -7 679 -128 337 -161 679
-454 795 -682 74 -144 37 -213 -115 -212 -187 1 -491 143 -1005 468 -342 216
-397 250 -458 282 -35 18 -71 33 -81 33 -24 0 -175 -135 -310 -276 -394 -413
-690 -902 -819 -1354 -56 -198 -75 -315 -74 -475 0 -236 53 -404 178 -567 185
-239 590 -378 1107 -378 710 0 1589 251 3043 871 1971 839 3009 1423 3624
2039 370 371 611 797 610 1082 -1 262 -175 520 -486 720 -58 37 -231 123 -317
157 -96 38 -294 86 -442 108 -136 19 -620 23 -755 6 l-75 -10 -130 63 c-355
172 -719 250 -985 212z"/>
</g>
</svg>
