<?xml version="1.0" encoding="UTF-8" standalone="no"?>
<!-- Uploaded to: SVG Repo, www.svgrepo.com, Generator: SVG Repo Mixer Tools -->

<svg
   fill="#000000"
   height="800px"
   width="800px"
   version="1.1"
   id="Layer_1"
   viewBox="0 0 512 512"
   xml:space="preserve"
   sodipodi:docname="cheese.svg"
   inkscape:version="1.1 (c68e22c387, 2021-05-23)"
   xmlns:inkscape="http://www.inkscape.org/namespaces/inkscape"
   xmlns:sodipodi="http://sodipodi.sourceforge.net/DTD/sodipodi-0.dtd"
   xmlns="http://www.w3.org/2000/svg"
   xmlns:svg="http://www.w3.org/2000/svg"><defs
   id="defs17" /><sodipodi:namedview
   id="namedview15"
   pagecolor="#ffffff"
   bordercolor="#666666"
   borderopacity="1.0"
   inkscape:pageshadow="2"
   inkscape:pageopacity="0.0"
   inkscape:pagecheckerboard="0"
   showgrid="false"
   inkscape:zoom="0.935"
   inkscape:cx="400.53476"
   inkscape:cy="400.53476"
   inkscape:window-width="1920"
   inkscape:window-height="1017"
   inkscape:window-x="-8"
   inkscape:window-y="-8"
   inkscape:window-maximized="1"
   inkscape:current-layer="Layer_1" />
<g
   id="g6">
	<g
   id="g4">
		<path
   d="M496.335,302.996H512v-50.16h-15.665H480.67H178.622c-2.339,24.626-23.091,43.894-48.333,43.894    s-45.993-19.268-48.333-43.894H33.102H17.437H1.771V457.56h130.826c-0.491-2.705-0.741-5.504-0.741-8.355    c0-2.486,0.198-4.929,0.564-7.31c0.877-5.608,2.747-10.893,5.431-15.665c8.042-14.329,23.393-24.02,41.001-24.02    s32.96,9.692,41.001,24.02c2.684,4.773,4.553,10.057,5.431,15.665c0.366,2.381,0.564,4.825,0.564,7.31    c0,2.851-0.251,5.65-0.742,8.355H512V351.036h-15.665c-13.242,0-24.02-10.778-24.02-24.02    C472.315,313.774,483.092,302.996,496.335,302.996z M323.181,378.429c-21.921,0-39.685-17.764-39.685-39.685    c0-21.911,17.764-39.685,39.685-39.685c21.911,0,39.685,17.775,39.685,39.685C362.866,360.665,345.092,378.429,323.181,378.429z"
   id="path2" />
	</g>
</g>
<g
   id="g12"
   transform="matrix(-1,0,0,1,507.1366,0)">
	<g
   id="g10">
		<path
   d="M 506.007,217.749 477.32,204.673 h -0.011 l -200.63,-91.4 c -3.588,21.443 -22.238,37.783 -44.701,37.783 -25.031,0 -45.319,-20.287 -45.319,-45.319 0,-10.923 3.858,-20.949 10.307,-28.777 L 147.541,54.44 C 29.629,63.378 5.943,164.074 1.2,204.671 -0.022,215.056 0,221.505 0,221.505 h 17.437 478.898 8.82 c 2.119,0 2.747,-2.859 0.852,-3.756 z"
   id="path8" />
	</g>
</g>
</svg>
