<?xml version="1.0" encoding="UTF-8" standalone="no"?>
<!-- Uploaded to: SVG Repo, www.svgrepo.com, Generator: SVG Repo Mixer Tools -->

<svg
   height="800px"
   width="800px"
   version="1.1"
   id="Capa_1"
   viewBox="0 0 25.289 25.289"
   xml:space="preserve"
   sodipodi:docname="chicken.svg"
   inkscape:version="1.1 (c68e22c387, 2021-05-23)"
   xmlns:inkscape="http://www.inkscape.org/namespaces/inkscape"
   xmlns:sodipodi="http://sodipodi.sourceforge.net/DTD/sodipodi-0.dtd"
   xmlns="http://www.w3.org/2000/svg"
   xmlns:svg="http://www.w3.org/2000/svg"><defs
   id="defs9" /><sodipodi:namedview
   id="namedview7"
   pagecolor="#ffffff"
   bordercolor="#666666"
   borderopacity="1.0"
   inkscape:pageshadow="2"
   inkscape:pageopacity="0.0"
   inkscape:pagecheckerboard="0"
   showgrid="false"
   inkscape:zoom="0.935"
   inkscape:cx="400.53476"
   inkscape:cy="400.53476"
   inkscape:window-width="1920"
   inkscape:window-height="1017"
   inkscape:window-x="-8"
   inkscape:window-y="-8"
   inkscape:window-maximized="1"
   inkscape:current-layer="Capa_1" />
<g
   id="g4"
   transform="matrix(-1,0,0,1,25.288769,0)">
	<path
   style="fill:#030104"
   d="M 25.287,5.168 C 25.34,4.22 24.149,3.82 23.891,3.179 24.068,2.996 24.264,1.854 24.214,1.496 24.165,1.15 23.385,1.941 23.247,1.783 23.09,1.6 23.356,0.812 23.067,0.406 22.92,0.199 22.584,1.733 22.33,1.848 22.147,1.93 21.828,1.497 21.502,0.898 20.969,-0.081 21.263,2.027 21.314,2.429 19.901,2.645 19.016,3.582 18.618,4.798 18.18,6.135 16.957,9.111 14.707,9.252 12.004,9.422 8.989,6.894 7.567,5.438 6.81,4.665 6.257,2.439 4.931,2.611 4.332,2.689 3.861,3.535 3.16,3.717 c 0,0 -3.6,0.889 -3.115,1.856 0.286,0.569 1.859,1.316 3.06,1.82 C 3.158,7.414 3.187,7.474 3.17,7.528 3.153,7.584 3.098,7.617 3.042,7.608 2.012,7.425 0.988,7.386 2.012,8.265 2.265,8.482 3.214,8.94 4.104,9.347 4.157,9.37 4.184,9.431 4.164,9.486 4.145,9.541 4.088,9.573 4.031,9.559 3.31,9.384 2.655,9.308 2.695,9.623 c 0.089,0.71 2.828,2.794 2.828,2.794 -0.347,0.426 1.065,1.955 1.29,2.147 -0.324,-0.108 -0.673,0.016 -0.214,0.431 0.676,0.614 0.826,1.604 1.404,2.178 1.699,1.689 4.248,0.415 5.561,3.267 0.068,0.148 0.367,0.747 0.624,1.27 0.077,0.156 0.077,0.339 10e-4,0.495 -0.077,0.156 -0.222,0.269 -0.392,0.304 l -1.699,0.352 c -0.247,0.051 -0.421,0.28 -0.397,0.537 0.026,0.274 0.27,0.478 0.545,0.451 l 1.68,-0.157 c 0.056,-0.005 0.11,0.024 0.137,0.074 0.027,0.05 0.02,0.111 -0.017,0.155 l -0.134,0.161 c -0.176,0.212 -0.147,0.527 0.065,0.704 0.093,0.077 0.206,0.115 0.319,0.115 0.144,0 0.285,-0.062 0.385,-0.181 l 0.707,-0.851 c 0.134,-0.161 0.346,-0.234 0.551,-0.19 l 2.476,0.532 c 0.246,0.053 0.498,-0.087 0.58,-0.331 0.088,-0.262 -0.054,-0.546 -0.316,-0.634 l -2.234,-0.747 c -0.203,-0.067 -0.351,-0.246 -0.379,-0.458 -0.054,-0.398 -0.124,-0.9 -0.173,-1.284 -0.033,-0.258 0.125,-0.502 0.373,-0.577 1.134,-0.34 1.741,-1.725 2.477,-2.658 0.337,-0.43 0.813,-0.722 1.348,-0.831 2.928,-0.597 3.921,-3.638 4.229,-6.854 C 24.502,7.939 23.61,7.17 23.138,5.757 23.731,5.579 24.381,4.692 25.287,5.168 Z M 22.065,4.111 c -0.218,0 -0.393,-0.176 -0.393,-0.394 0,-0.22 0.176,-0.396 0.393,-0.396 0.223,0 0.394,0.176 0.394,0.396 0,0.218 -0.172,0.394 -0.394,0.394 z"
   id="path2" />
</g>
</svg>
