<?xml version="1.0" encoding="iso-8859-1"?>
<!-- Uploaded to: SVG Repo, www.svgrepo.com, Generator: SVG Repo Mixer Tools -->
<!DOCTYPE svg PUBLIC "-//W3C//DTD SVG 1.1//EN" "http://www.w3.org/Graphics/SVG/1.1/DTD/svg11.dtd">
<svg fill="#000000" height="800px" width="800px" version="1.1" id="Capa_1" xmlns="http://www.w3.org/2000/svg" xmlns:xlink="http://www.w3.org/1999/xlink" 
	 viewBox="0 0 58 58" xml:space="preserve">
<g>
	<circle cx="50" cy="49" r="1"/>
	<circle cx="48" cy="46" r="1"/>
	<circle cx="46" cy="43" r="1"/>
	<circle cx="50" cy="43" r="1"/>
	<circle cx="44" cy="40" r="1"/>
	<circle cx="48" cy="40" r="1"/>
	<circle cx="42" cy="37" r="1"/>
	<circle cx="46" cy="37" r="1"/>
	<circle cx="52" cy="52" r="1"/>
	<circle cx="48" cy="52" r="1"/>
	<circle cx="46" cy="49" r="1"/>
	<circle cx="44" cy="46" r="1"/>
	<circle cx="42" cy="43" r="1"/>
	<circle cx="40" cy="40" r="1"/>
	<circle cx="42" cy="49" r="1"/>
	<circle cx="40" cy="46" r="1"/>
	<circle cx="38" cy="43" r="1"/>
	<circle cx="44" cy="52" r="1"/>
	<circle cx="40" cy="52" r="1"/>
	<circle cx="38" cy="49" r="1"/>
	<circle cx="36" cy="46" r="1"/>
	<circle cx="34" cy="49" r="1"/>
	<circle cx="36" cy="52" r="1"/>
	<circle cx="32" cy="52" r="1"/>
	<path d="M56.374,47.186c-1.015-1.256-2.436-3.569-3.809-5.807c-1.439-2.346-2.799-4.562-3.847-5.855
		c-1.626-2.007-3.631-3.214-5.719-3.47V3c0-0.553-0.448-1-1-1H11.006c-0.552,0-1,0.447-1,1v49c0,0.553,0.448,1,1,1H26.47
		c0.058,0.26,0.136,0.514,0.257,0.752C27.25,54.777,28.588,56,31.988,56h18.16c3.774,0,6.498-1.169,7.471-3.207
		C58.406,51.144,57.964,49.153,56.374,47.186z M33,31c0,0.553-0.448,1-1,1H22c-0.552,0-1-0.447-1-1s0.448-1,1-1h10
		C32.552,30,33,30.447,33,31z M18,34c0-0.553,0.448-1,1-1h15c0.552,0,1,0.447,1,1s-0.448,1-1,1H19C18.448,35,18,34.553,18,34z
		 M21,37c0-0.553,0.448-1,1-1h10c0.552,0,1,0.447,1,1s-0.448,1-1,1H22C21.448,38,21,37.553,21,37z M31.988,54
		c-1.836,0-3.104-0.422-3.479-1.156c0-0.001,0-0.002,0-0.002C28.797,52.666,29,52.363,29,52c0-0.315-0.155-0.585-0.384-0.768
		c0.015-0.038,0.024-0.073,0.041-0.111c0.013-0.031,0.029-0.062,0.044-0.093c0.063-0.137,0.137-0.277,0.218-0.419
		c0.023-0.04,0.045-0.08,0.069-0.121c0.105-0.174,0.22-0.352,0.351-0.532c0.033-0.046,0.069-0.101,0.103-0.148
		C29.604,49.919,29.789,50,30,50c0.552,0,1-0.448,1-1c0-0.358-0.199-0.658-0.482-0.835c0.274-0.444,0.557-0.915,0.848-1.409
		C31.539,46.902,31.755,47,32,47c0.552,0,1-0.448,1-1c0-0.432-0.277-0.791-0.66-0.931c0.08-0.141,0.161-0.282,0.241-0.424
		c0.205-0.361,0.409-0.722,0.613-1.083C33.375,43.82,33.661,44,34,44c0.552,0,1-0.448,1-1c0-0.528-0.412-0.948-0.93-0.986
		c0.334-0.589,0.665-1.167,0.989-1.723C35.185,40.698,35.551,41,36,41c0.552,0,1-0.448,1-1s-0.448-1-1-1
		c-0.071,0-0.134,0.026-0.201,0.041c0.445-0.735,0.86-1.383,1.229-1.904C37.097,37.621,37.496,38,38,38c0.552,0,1-0.448,1-1
		s-0.448-1-1-1c-0.013,0-0.024,0.007-0.036,0.007c0.082-0.085,0.162-0.178,0.246-0.258c0.108-0.103,0.22-0.192,0.331-0.287
		c0.088-0.075,0.175-0.157,0.265-0.226c0.117-0.091,0.239-0.168,0.359-0.249c0.088-0.06,0.174-0.125,0.263-0.179
		c0.12-0.073,0.242-0.132,0.364-0.195c0.093-0.048,0.186-0.103,0.28-0.145c0.118-0.053,0.238-0.094,0.357-0.138
		c0.102-0.038,0.202-0.08,0.305-0.111c0.116-0.035,0.234-0.058,0.351-0.085c0.108-0.024,0.215-0.053,0.324-0.07
		c0.117-0.019,0.236-0.025,0.354-0.035C41.898,34.018,42.032,34,42.167,34c1.769,0,3.543,0.988,4.997,2.784
		c0.966,1.191,2.354,3.454,3.697,5.642c0.579,0.944,1.165,1.896,1.732,2.79C52.425,45.089,52.227,45,52,45c-0.552,0-1,0.448-1,1
		s0.448,1,1,1s1-0.448,1-1c0-0.076-0.027-0.142-0.043-0.213c0.628,0.973,1.219,1.837,1.741,2.5C54.517,48.11,54.272,48,54,48
		c-0.552,0-1,0.448-1,1s0.448,1,1,1s1-0.448,1-1c0-0.256-0.103-0.483-0.261-0.66c0.026,0.033,0.055,0.073,0.081,0.104
		c0.748,0.925,1.138,1.802,1.167,2.559C55.441,51.011,55,51.453,55,52c0,0.248,0.1,0.467,0.249,0.642
		C54.295,53.5,52.488,54,50.148,54H31.988z M35.342,16H39v3.658C39,22.608,36.608,25,33.658,25H30v-3.658
		C30,18.391,32.392,16,35.342,16z M23.406,10.359l2.587-2.587l2.587,2.587c2.086,2.086,2.086,5.468,0,7.554L25.992,20.5
		l-2.587-2.587C21.319,15.827,21.319,12.445,23.406,10.359z M14,19.658V16h3.658C20.608,16,23,18.391,23,21.341V25h-3.658
		C16.392,25,14,22.608,14,19.658z"/>
	<path d="M7.976,2H1C0.448,2,0,2.447,0,3v46c0,0.399,0.238,0.761,0.605,0.919l6.976,3C7.708,52.973,7.842,53,7.976,53
		c0.192,0,0.384-0.056,0.55-0.165c0.281-0.185,0.45-0.499,0.45-0.835V3C8.976,2.447,8.528,2,7.976,2z"/>
</g>
</svg>