<?xml version="1.0" encoding="UTF-8" standalone="no"?>
<!-- Uploaded to: SVG Repo, www.svgrepo.com, Generator: SVG Repo Mixer Tools -->

<svg
   fill="#000000"
   height="800px"
   width="800px"
   version="1.1"
   id="Layer_1"
   viewBox="0 0 512.001 512.001"
   xml:space="preserve"
   sodipodi:docname="fruits.svg"
   inkscape:version="1.1 (c68e22c387, 2021-05-23)"
   xmlns:inkscape="http://www.inkscape.org/namespaces/inkscape"
   xmlns:sodipodi="http://sodipodi.sourceforge.net/DTD/sodipodi-0.dtd"
   xmlns="http://www.w3.org/2000/svg"
   xmlns:svg="http://www.w3.org/2000/svg"><defs
   id="defs23" /><sodipodi:namedview
   id="namedview21"
   pagecolor="#ffffff"
   bordercolor="#666666"
   borderopacity="1.0"
   inkscape:pageshadow="2"
   inkscape:pageopacity="0.0"
   inkscape:pagecheckerboard="0"
   showgrid="false"
   inkscape:zoom="0.16528621"
   inkscape:cx="1243.2979"
   inkscape:cy="898.44156"
   inkscape:window-width="1920"
   inkscape:window-height="1017"
   inkscape:window-x="1912"
   inkscape:window-y="-8"
   inkscape:window-maximized="1"
   inkscape:current-layer="Layer_1" />
<g
   id="g6"
   transform="matrix(-1,0,0,1,512.00121,0)">
	<g
   id="g4">
		<path
   d="M 155.485,39.578 C 151.146,15.417 117.11,1.313 79.464,8.074 50.988,13.189 17.113,45.112 2.303,60.359 -1.58,64.355 -0.389,71.003 4.646,73.4 c 19.191,9.141 62.056,27.281 90.533,22.167 37.645,-6.761 64.645,-31.829 60.306,-55.989 z"
   id="path2" />
	</g>
</g>
<g
   id="g12"
   transform="matrix(-1,0,0,1,512.00121,0)">
	<g
   id="g10">
		<path
   d="m 165.328,363.434 c -9.963,-28.292 -8.74,-58.696 3.445,-85.612 12.408,-27.412 34.633,-47.929 62.58,-57.77 5.681,-2 11.595,-3.508 17.698,-4.524 -4.306,-14.054 -6.553,-28.764 -6.553,-43.679 0,-35.761 -23.659,-65.988 -56.175,-75.907 7.858,-13.653 24.012,-37.24 47.788,-50.257 4.164,-2.28 6.036,-7.27 4.385,-11.721 L 228.608,7.317 c -2.102,-5.664 -8.874,-7.996 -14.027,-4.808 -16.921,10.471 -49.408,37.193 -54.595,90.062 -42.362,1.659 -76.2,36.507 -76.2,79.276 0,35.036 -12.254,68.753 -34.692,95.66 -21.465,25.74 -34.378,58.858 -34.378,94.994 0,81.973 66.453,148.425 148.426,148.425 24.845,0 48.259,-6.113 68.834,-16.904 -7.208,-9.05 -14.28,-19.325 -21.159,-30.776 -20.646,-34.353 -36.132,-73.24 -45.489,-99.812 z"
   id="path8" />
	</g>
</g>
<g
   id="g18"
   transform="matrix(-1,0,0,1,512.00121,0)">
	<g
   id="g16">
		<path
   d="m 435.625,247.146 c -15.219,0 -31.031,3.867 -45.058,10.915 -5.379,2.703 -10.97,4.803 -16.681,6.308 6.72,-11.926 21.325,-33.899 43.162,-45.855 3.703,-2.028 5.369,-6.467 3.9,-10.426 l -8.796,-23.703 c -1.873,-5.048 -7.904,-7.106 -12.477,-4.276 -15.776,9.762 -46.754,35.419 -49.044,87.086 -12.813,-0.196 -25.595,-3.241 -37.359,-9.146 -14.018,-7.038 -29.825,-10.9 -45.031,-10.901 -56.228,-0.001 -89.244,55.223 -71.622,105.269 13.606,38.643 59.678,158.514 121.199,158.514 4.941,0 9.973,-0.772 15.104,-2.421 8.013,-2.576 14.257,-10.664 19.011,-22.278 4.754,11.615 10.998,19.703 19.011,22.278 5.127,1.648 10.167,2.421 15.104,2.421 61.527,0 107.59,-119.869 121.199,-158.514 17.61,-50.012 -15.353,-105.271 -71.622,-105.271 z"
   id="path14" />
	</g>
</g>
</svg>
