<?xml version="1.0" encoding="iso-8859-1"?>
<!-- Uploaded to: SVG Repo, www.svgrepo.com, Generator: SVG Repo Mixer Tools -->
<svg fill="#000000" height="800px" width="800px" version="1.1" id="Layer_1" xmlns="http://www.w3.org/2000/svg" xmlns:xlink="http://www.w3.org/1999/xlink" 
	 viewBox="0 0 512 512" xml:space="preserve">
<g>
	<g>
		<g>
			<polygon points="315.733,301.925 315.733,269.805 290.133,257.005 264.533,269.805 264.533,301.925 290.133,314.725 			"/>
			<polygon points="298.667,329.542 298.667,361.661 324.267,374.461 349.867,361.661 349.867,329.542 324.267,316.742 			"/>
			<polygon points="264.533,389.275 264.533,421.395 290.133,434.195 315.733,421.395 315.733,389.275 290.133,376.475 			"/>
			<path d="M414.123,119.467h-14.711c-3.797,0-6.878-3.081-6.878-6.878V85.333c23.526,0,42.667-19.14,42.667-42.667
				C435.2,19.14,416.06,0,392.533,0h-51.2h-17.067H187.733h-17.067h-51.2C95.94,0,76.8,19.14,76.8,42.667
				c0,23.526,19.14,42.667,42.667,42.667v27.255c0,3.797-3.081,6.878-6.878,6.878H97.877c-21.035,0-38.144,17.109-38.144,38.135
				v316.262c0,21.026,17.109,38.135,38.144,38.135h316.245c21.035,0,38.144-17.109,38.144-38.135V157.602
				C452.267,136.576,435.157,119.467,414.123,119.467z M341.333,17.067h51.2c14.114,0,25.6,11.486,25.6,25.6s-11.486,25.6-25.6,25.6
				h-51.2V17.067z M187.733,85.333V68.267v-51.2h136.533v51.2v17.067V179.2c0,5.103-2.295,9.916-6.281,13.193
				c-4.028,3.311-9.122,4.557-14.285,3.524c-7.731-1.536-13.568-9.199-13.568-17.835V76.8c0-18.825-15.309-34.133-34.133-34.133
				S221.867,57.975,221.867,76.8V128c0,5.103-2.295,9.916-6.281,13.193c-4.036,3.311-9.114,4.548-14.285,3.524
				c-0.964-0.188-1.903-0.478-2.807-0.853c-6.298-2.611-10.76-9.429-10.76-16.981V85.333z M93.867,42.667
				c0-14.114,11.486-25.6,25.6-25.6h51.2v51.2h-51.2C105.353,68.267,93.867,56.781,93.867,42.667z M366.933,366.933
				c0,3.234-1.826,6.187-4.719,7.637L332.8,389.274v37.393c0,3.234-1.826,6.187-4.719,7.637l-34.133,17.067
				c-1.195,0.597-2.509,0.896-3.814,0.896c-1.306,0-2.62-0.299-3.814-0.896L256,436.207l-30.319,15.164
				c-1.195,0.597-2.509,0.896-3.814,0.896s-2.62-0.299-3.814-0.896l-34.133-17.067c-2.893-1.451-4.719-4.403-4.719-7.637v-37.393
				l-29.414-14.703c-2.893-1.451-4.719-4.403-4.719-7.637v-42.667c0-3.234,1.826-6.187,4.719-7.637l29.414-14.703v-37.393
				c0-3.234,1.826-6.187,4.719-7.637l34.133-17.067c2.398-1.195,5.231-1.195,7.629,0L256,254.993l30.319-15.164
				c2.398-1.195,5.231-1.195,7.629,0l34.133,17.067c2.893,1.451,4.719,4.403,4.719,7.637v37.393l29.414,14.703
				c2.893,1.451,4.719,4.403,4.719,7.637V366.933z"/>
			<polygon points="281.6,329.542 256,316.742 230.4,329.542 230.4,361.661 256,374.461 281.6,361.661 			"/>
			<polygon points="247.467,301.925 247.467,269.805 221.867,257.005 196.267,269.805 196.267,301.925 221.867,314.725 			"/>
			<polygon points="213.333,329.542 187.733,316.742 162.133,329.542 162.133,361.661 187.733,374.461 213.333,361.661 			"/>
			<polygon points="196.267,389.275 196.267,421.395 221.867,434.195 247.467,421.395 247.467,389.275 221.867,376.475 			"/>
		</g>
	</g>
</g>
</svg>