<?xml version="1.0" standalone="no"?>
<!DOCTYPE svg PUBLIC "-//W3C//DTD SVG 20010904//EN"
 "http://www.w3.org/TR/2001/REC-SVG-20010904/DTD/svg10.dtd">
<svg version="1.0" xmlns="http://www.w3.org/2000/svg"
 width="1000.000000pt" height="1000.000000pt" viewBox="0 0 1000.000000 1000.000000"
 preserveAspectRatio="xMidYMid meet">

<g transform="translate(0.000000,1000.000000) scale(0.100000,-0.100000)"
fill="#000000" stroke="none">
<path d="M0 5000 l0 -5000 5000 0 5000 0 0 5000 0 5000 -5000 0 -5000 0 0
-5000z m8169 2833 c0 -5 -27 -42 -60 -83 -32 -41 -92 -118 -131 -170 -40 -52
-91 -117 -114 -145 -23 -27 -76 -95 -118 -150 -41 -55 -119 -157 -173 -227
-54 -69 -140 -182 -192 -250 -51 -67 -99 -127 -105 -133 -6 -5 -50 -62 -98
-125 -48 -63 -132 -173 -188 -245 -55 -71 -142 -184 -192 -250 -50 -66 -95
-122 -99 -125 -10 -7 -199 -260 -221 -295 -24 -40 -23 -74 5 -109 21 -26 34
-30 133 -46 177 -29 331 -84 452 -162 85 -55 232 -208 284 -296 44 -73 118
-246 118 -275 0 -7 12 -57 27 -112 26 -99 27 -104 26 -430 0 -325 0 -333 -31
-515 -18 -102 -41 -219 -53 -260 -11 -41 -24 -91 -28 -110 -4 -19 -20 -65 -34
-101 -15 -36 -27 -69 -27 -73 0 -21 -113 -250 -139 -281 -9 -11 -39 -54 -66
-95 -67 -101 -240 -270 -356 -349 -81 -55 -303 -171 -326 -171 -4 0 -49 -13
-100 -30 -51 -16 -143 -38 -205 -49 -112 -21 -132 -21 -2227 -19 l-2115 3 66
81 c36 45 98 126 138 180 41 54 81 106 90 114 9 8 63 77 121 153 57 76 140
185 184 242 224 288 278 358 373 483 56 75 106 138 110 141 4 4 47 58 95 121
48 63 134 176 192 250 58 74 144 186 192 249 48 63 98 126 111 140 44 47 102
143 102 168 0 41 -36 80 -88 97 -101 32 -267 105 -282 125 -3 4 -25 22 -50 40
-68 51 -137 120 -178 176 -20 28 -39 52 -43 55 -12 10 -78 136 -99 190 -86
216 -114 387 -114 700 -1 268 14 436 56 625 75 340 167 553 333 775 119 157
291 306 465 400 109 59 288 125 425 156 l100 22 2028 1 c1115 1 2027 -2 2026
-6z"/>
<path d="M6287 7157 c-29 -29 -91 -104 -140 -167 -137 -180 -255 -331 -292
-375 -18 -22 -50 -60 -69 -85 -192 -241 -365 -461 -465 -592 -50 -64 -101
-128 -115 -143 -14 -15 -45 -54 -68 -87 -55 -76 -114 -153 -233 -303 -52 -66
-138 -176 -191 -245 -53 -69 -102 -129 -108 -135 -6 -5 -40 -48 -76 -95 -35
-47 -114 -148 -175 -225 -61 -77 -122 -156 -136 -175 -15 -19 -39 -48 -56 -65
-16 -16 -65 -77 -108 -135 -44 -58 -90 -116 -102 -130 -12 -14 -61 -77 -109
-140 -48 -63 -93 -119 -100 -125 -6 -5 -53 -66 -105 -135 -52 -69 -102 -134
-112 -145 -10 -11 -54 -67 -98 -125 -44 -58 -128 -167 -187 -242 -59 -75 -143
-183 -188 -240 -111 -141 -118 -157 -93 -211 20 -44 41 -47 386 -47 l326 0 39
40 c21 23 79 94 128 158 119 154 281 362 351 448 30 38 79 101 109 139 29 39
62 79 72 90 10 11 58 72 108 135 49 63 136 176 195 250 58 74 155 198 215 275
60 77 142 183 181 235 40 52 87 111 104 130 18 19 73 89 124 155 51 66 144
185 207 265 63 80 136 174 162 209 26 35 81 105 122 155 72 87 136 169 300
382 41 53 98 125 126 158 28 34 79 99 115 146 35 47 86 112 112 145 27 33 76
97 110 141 125 164 262 339 273 349 17 15 199 257 213 282 23 44 6 103 -36
122 -16 7 -131 11 -344 11 l-320 0 -52 -53z"/>
<path d="M4092 6505 c-149 -27 -253 -106 -316 -239 -45 -95 -61 -212 -52 -381
6 -117 27 -179 83 -245 76 -91 182 -127 404 -136 201 -9 198 -11 337 174 57
75 142 187 190 249 48 62 126 163 173 225 48 62 105 136 128 163 71 85 77 165
15 194 -38 17 -865 13 -962 -4z"/>
<path d="M5570 4462 c-45 -46 -104 -122 -338 -431 -56 -74 -106 -138 -110
-141 -12 -8 -184 -238 -209 -279 -36 -57 -25 -118 24 -140 17 -8 192 -11 576
-11 508 0 559 2 639 20 254 56 378 244 378 573 0 219 -64 343 -218 419 l-67
33 -314 3 -314 3 -47 -49z"/>
</g>
</svg>
